<?xml version="1.0" encoding="utf-8"?>
<!-- Generator: Adobe Illustrator 19.0.0, SVG Export Plug-In . SVG Version: 6.00 Build 0)  -->
<svg version="1.1" id="Capa_1" xmlns="http://www.w3.org/2000/svg" xmlns:xlink="http://www.w3.org/1999/xlink" x="0px" y="0px"
	 viewBox="-577 308.1 284.9 284.9" style="enable-background:new -577 308.1 284.9 284.9;" xml:space="preserve">
<style type="text/css">
	.st0{fill:#ED4F74;}
</style>
<g>
	<path class="st0" d="M-574.2,397.7l133.1,133c1.9,1.9,4.1,2.9,6.6,2.9s4.7-1,6.6-2.9l133-133c1.9-1.9,2.9-4.1,2.9-6.6
		c0-2.5-1-4.7-2.9-6.6l-14.3-14.3c-1.9-1.9-4.1-2.9-6.6-2.9s-4.7,1-6.6,2.9l-112.2,112.2l-112.2-112.2c-1.9-1.9-4.1-2.8-6.6-2.8
		c-2.5,0-4.7,1-6.6,2.8l-14.3,14.3c-1.9,1.9-2.8,4.1-2.8,6.6C-577,393.6-576.1,395.8-574.2,397.7z"/>
</g>
</svg>
