<?xml version="1.0" encoding="utf-8"?>
<!-- Generator: Adobe Illustrator 19.0.0, SVG Export Plug-In . SVG Version: 6.00 Build 0)  -->
<svg version="1.1" id="Capa_1" xmlns="http://www.w3.org/2000/svg" xmlns:xlink="http://www.w3.org/1999/xlink" x="0px" y="0px"
	 viewBox="-463 195 512 512" style="enable-background:new -463 195 512 512;" xml:space="preserve">
<style type="text/css">
	.st0{fill:#FFFFFF;}
</style>
<g>
	<g id="_x36__30_">
		<g>
			<path class="st0" d="M-312.4,467H33c8.8,0,16-7.2,16-16s-7.2-16-16-16h-345.4l83.9-83.9c6.3-6.2,6.3-16.4,0-22.6
				c-6.2-6.3-16.4-6.3-22.6,0l-110.4,110.4c-3.3,3.3-4.8,7.7-4.5,12.1c-0.2,4.4,1.2,8.8,4.5,12.1l110.4,110.4
				c6.2,6.3,16.4,6.3,22.6,0c6.3-6.2,6.3-16.4,0-22.6L-312.4,467z M-463,291v320c0,35.3,28.7,64,64,64h320c35.3,0,64-28.7,64-64v-64
				h-32v64c0,17.7-14.3,32-32,32h-320c-17.7,0-32-14.3-32-32V291c0-17.7,14.3-32,32-32h320c17.7,0,32,14.3,32,32v64h32v-64
				c0-35.3-28.7-64-64-64h-320C-434.3,227-463,255.7-463,291z"/>
		</g>
	</g>
</g>
</svg>
