<?xml version="1.0" encoding="utf-8"?>
<!-- Generator: Adobe Illustrator 19.0.0, SVG Export Plug-In . SVG Version: 6.00 Build 0)  -->
<svg version="1.1" id="Layer_1" xmlns="http://www.w3.org/2000/svg" xmlns:xlink="http://www.w3.org/1999/xlink" x="0px" y="0px"
	 viewBox="-49 141 512 512" style="enable-background:new -49 141 512 512;" xml:space="preserve">
<style type="text/css">
	.st0{fill:#FFFFFF;}
</style>
<g>
	<path class="st0" d="M207,173c-95.5,0-177.1,59.8-209.3,144h34.6c9.4-20.5,22.5-39.4,38.9-55.8C107.5,225,155.7,205,207,205
		s99.5,20,135.8,56.2C379,297.5,399,345.7,399,397s-20,99.5-56.2,135.8C306.5,569,258.3,589,207,589s-99.5-20-135.8-56.2
		c-16.4-16.4-29.5-35.3-38.9-55.8H-2.3C29.9,561.2,111.5,621,207,621c123.7,0,224-100.3,224-224S330.7,173,207,173z"/>
	<polygon class="st0" points="157.9,464.9 180.5,487.5 271,397 180.5,306.5 157.9,329.1 209.7,381 -17,381 -17,413 209.7,413 	"/>
</g>
</svg>
