<?xml version="1.0" encoding="utf-8"?>
<!-- Generator: Adobe Illustrator 19.0.0, SVG Export Plug-In . SVG Version: 6.00 Build 0)  -->
<svg version="1.1" id="Capa_1" xmlns="http://www.w3.org/2000/svg" xmlns:xlink="http://www.w3.org/1999/xlink" x="0px" y="0px"
	 viewBox="-463 195 512 512" style="enable-background:new -463 195 512 512;" xml:space="preserve">
<style type="text/css">
	.st0{fill:#FFFFFF;}
</style>
<g>
	<g id="_x36__30_">
		<g>
			<path class="st0" d="M-185.5,550.9c-6.3,6.3-6.3,16.4,0,22.6c6.3,6.3,16.4,6.3,22.6,0l110.4-110.4c3.3-3.3,4.8-7.8,4.5-12.1
				c0.2-4.4-1.2-8.8-4.5-12.1l-110.4-110.4c-6.2-6.3-16.4-6.3-22.6,0c-6.3,6.3-6.3,16.4,0,22.6l83.9,83.9H-447c-8.8,0-16,7.2-16,16
				s7.2,16,16,16h345.4L-185.5,550.9z M-15,227h-320c-35.3,0-64,28.7-64,64v64h32v-64c0-17.7,14.3-32,32-32h320
				c17.7,0,32,14.3,32,32v320c0,17.7-14.3,32-32,32h-320c-17.7,0-32-14.3-32-32v-64h-32v64c0,35.3,28.7,64,64,64h320
				c35.3,0,64-28.7,64-64V291C49,255.7,20.3,227-15,227z"/>
		</g>
	</g>
</g>
</svg>
