<?xml version="1.0" encoding="utf-8"?>
<!-- Generator: Adobe Illustrator 19.0.0, SVG Export Plug-In . SVG Version: 6.00 Build 0)  -->
<svg version="1.1" id="Capa_1" xmlns="http://www.w3.org/2000/svg" xmlns:xlink="http://www.w3.org/1999/xlink" x="0px" y="0px"
	 viewBox="-689 421 60 60" style="enable-background:new -689 421 60 60;" xml:space="preserve">
<style type="text/css">
	.st0{fill:#FFFFFF;}
</style>
<g>
	<path class="st0" d="M-677,438.5h15c0.6,0,1-0.4,1-1s-0.4-1-1-1h-15c-0.6,0-1,0.4-1,1S-677.6,438.5-677,438.5z"/>
	<path class="st0" d="M-643,444.5h-34c-0.6,0-1,0.4-1,1s0.4,1,1,1h34c0.6,0,1-0.4,1-1S-642.4,444.5-643,444.5z"/>
	<path class="st0" d="M-643,452.5h-34c-0.6,0-1,0.4-1,1s0.4,1,1,1h34c0.6,0,1-0.4,1-1S-642.4,452.5-643,452.5z"/>
	<path class="st0" d="M-635,423.5h-48c-3.3,0-6,2.7-6,6v33c0,3.3,2.7,6,6,6h14.6l8.7,9.7c0.2,0.2,0.5,0.3,0.7,0.3s0.6-0.1,0.7-0.3
		l8.7-9.7h14.6c3.3,0,6-2.7,6-6v-33C-629,426.2-631.7,423.5-635,423.5z M-631,462.5c0,2.2-1.8,4-4,4h-12.5l2.3-2.3
		c0.4-0.4,0.4-1,0-1.4c-0.4-0.4-1-0.4-1.4,0l-4,4c0,0-0.1,0-0.1,0.1l-8.3,9.2l-8.3-9.2c0,0,0,0,0,0c0,0,0,0,0,0l-4-4
		c-0.4-0.4-1-0.4-1.4,0c-0.4,0.4-0.4,1,0,1.4l2.3,2.3H-683c-2.2,0-4-1.8-4-4v-33c0-2.2,1.8-4,4-4h48c2.2,0,4,1.8,4,4V462.5z"/>
</g>
</svg>
