<?xml version="1.0" encoding="utf-8"?>
<!-- Generator: Adobe Illustrator 19.0.0, SVG Export Plug-In . SVG Version: 6.00 Build 0)  -->
<svg version="1.1" id="Capa_1" xmlns="http://www.w3.org/2000/svg" xmlns:xlink="http://www.w3.org/1999/xlink" x="0px" y="0px"
	 viewBox="-337 138.1 284.9 284.9" style="enable-background:new -337 138.1 284.9 284.9;" xml:space="preserve">
<style type="text/css">
	.st0{fill:#FFFFFF;}
</style>
<g>
	<path class="st0" d="M-54.9,297.5l-133.1-133c-1.9-1.9-4.1-2.9-6.6-2.9s-4.7,1-6.6,2.9l-133,133c-1.9,1.9-2.9,4.1-2.9,6.6
		s1,4.7,2.9,6.6l14.3,14.3c1.9,1.9,4.1,2.9,6.6,2.9s4.7-1,6.6-2.9l112.2-112.2L-82.3,325c1.9,1.9,4.1,2.8,6.6,2.8s4.7-1,6.6-2.8
		l14.3-14.3c1.9-1.9,2.8-4.1,2.8-6.6C-52.1,301.5-53,299.4-54.9,297.5z"/>
</g>
</svg>
