<?xml version="1.0" encoding="utf-8"?>
<!-- Generator: Adobe Illustrator 19.0.0, SVG Export Plug-In . SVG Version: 6.00 Build 0)  -->
<svg version="1.1" id="Layer_1" xmlns="http://www.w3.org/2000/svg" xmlns:xlink="http://www.w3.org/1999/xlink" x="0px" y="0px"
	 viewBox="-49 141 512 512" style="enable-background:new -49 141 512 512;" xml:space="preserve">
<style type="text/css">
	.st0{fill:#FFFFFF;}
</style>
<g id="Icon_4_">
	<g>
		<g>
			<g>
				<path class="st0" d="M288.5,446.4H271l-6.6-5.5c20.8-25.2,33.9-57.1,33.9-93.3c0-79-63.5-142.6-142.2-142.6
					C78.5,205,15,268.6,15,347.6s63.5,142.6,142.2,142.6c35,0,67.8-13.2,93-34l6.6,5.5v17.6L366.2,589l32.8-32.9L288.5,446.4z
					 M157.2,446.4c-54.7,0-98.5-43.9-98.5-98.7c0-54.9,43.8-98.7,98.5-98.7c54.7,0,98.5,43.9,98.5,98.7
					C255.7,402.5,211.9,446.4,157.2,446.4z"/>
			</g>
		</g>
	</g>
</g>
</svg>
