<svg id="Capa_1" data-name="Capa 1" xmlns="http://www.w3.org/2000/svg" viewBox="0 0 487.96 487.96"><defs><style>.cls-1{fill:#fff;}</style></defs><title>Artboard 1</title><path class="cls-1" d="M483.06,215.61,267.56,38a13.43,13.43,0,0,0-22,10.4V142c-104.6,3.8-176.5,40.7-213.9,109.8C-.54,311.41-.24,382,.06,428.71v10.8a13.57,13.57,0,0,0,10.1,13.1,13.17,13.17,0,0,0,3.4.4,13.32,13.32,0,0,0,11.7-6.8c73-128.7,133.1-134.9,220.2-135.2v93.3a13.41,13.41,0,0,0,7.8,12.2,13.7,13.7,0,0,0,14.4-1.8l215.4-178.2a13.59,13.59,0,0,0,4.9-10.4A13.8,13.8,0,0,0,483.06,215.61Zm-210.5,160v-78.1a13.07,13.07,0,0,0-4-9.5,13.66,13.66,0,0,0-9.5-4c-54.4,0-96.1,1.5-136.6,20.4-35,16.3-65.3,44-95.2,87.5,1.2-39.7,6.4-87.1,28.1-127.2,34.4-63.6,101-95.1,203.7-96a13.55,13.55,0,0,0,13.4-13.5V77l180.7,149.1Z"/></svg>