<?xml version="1.0" encoding="utf-8"?>
<!-- Generator: Adobe Illustrator 22.1.0, SVG Export Plug-In . SVG Version: 6.00 Build 0)  -->
<svg version="1.1" id="Capa_1" xmlns="http://www.w3.org/2000/svg" xmlns:xlink="http://www.w3.org/1999/xlink" x="0px" y="0px"
	 viewBox="0 0 488 488" style="enable-background:new 0 0 488 488;" xml:space="preserve">
<style type="text/css">
	.st0{fill:#FFFFFF;}
</style>
<g>
	<path class="st0" d="M0,226.1c0,4,1.8,7.8,4.9,10.4l215.4,178.2c4.1,3.3,9.6,4,14.4,1.8s7.8-7,7.8-12.2V311
		c87.1,0.3,147.2,6.5,220.2,135.2c2.4,4.3,6.9,6.8,11.7,6.8c1.1,0,2.3-0.1,3.4-0.4c6-1.6,10.1-7,10.1-13.1c0-3.4,0-7,0-10.8
		c0.3-46.7,0.6-117.3-31.6-176.9C418.9,182.7,347,145.8,242.4,142V48.4c0-5.2-3-10-7.7-12.2s-10.3-1.5-14.3,1.8L4.9,215.6
		C1.8,218.2,0,222.1,0,226.1z M34.8,226.1L215.5,77v78.2c0,7.4,6,13.4,13.4,13.5c102.7,0.9,169.3,32.4,203.7,96
		c21.7,40.1,26.9,87.5,28.1,127.2c-29.9-43.5-60.2-71.2-95.2-87.5C325,285.5,283.3,284,228.9,284c-3.5,0-7,1.5-9.5,4
		c-2.6,2.5-4,5.9-4,9.5v78.1L34.8,226.1z"/>
</g>
</svg>
