<?xml version="1.0" encoding="utf-8"?>
<!-- Generator: Adobe Illustrator 19.0.0, SVG Export Plug-In . SVG Version: 6.00 Build 0)  -->
<svg version="1.1" id="Capa_1" xmlns="http://www.w3.org/2000/svg" xmlns:xlink="http://www.w3.org/1999/xlink" x="0px" y="0px"
	 viewBox="-690 422 58 58" style="enable-background:new -690 422 58 58;" xml:space="preserve">
<style type="text/css">
	.st0{fill:#FFFFFF;}
</style>
<path class="st0" d="M-633,428h-10h-36h-10c-0.6,0-1,0.4-1,1v11v11v11v11c0,0.6,0.4,1,1,1h10h36h10c0.6,0,1-0.4,1-1v-11v-11v-11v-11
	C-632,428.4-632.4,428-633,428z M-634,450h-8v-9h8V450z M-644,440v10h-34v-10v-10h34V440z M-680,450h-8v-9h8V450z M-688,452h8v9h-8
	V452z M-678,462v-10h34v10v10h-34V462z M-642,452h8v9h-8V452z M-634,430v9h-8v-9H-634z M-688,430h8v9h-8V430z M-688,472v-9h8v9H-688
	z M-634,472h-8v-9h8V472z"/>
</svg>
