<?xml version="1.0" encoding="utf-8"?>
<!-- Generator: Adobe Illustrator 19.0.0, SVG Export Plug-In . SVG Version: 6.00 Build 0)  -->
<svg version="1.1" id="Layer_1" xmlns="http://www.w3.org/2000/svg" xmlns:xlink="http://www.w3.org/1999/xlink" x="0px" y="0px"
	 viewBox="-463 195 512 512" style="enable-background:new -463 195 512 512;" xml:space="preserve">
<style type="text/css">
	.st0{fill:#FFFDFD;}
</style>
<g>
	<g>
		<rect x="-431" y="579" class="st0" width="272" height="32"/>
		<rect x="-63" y="579" class="st0" width="80" height="32"/>
		<path class="st0" d="M-79,642.5c0,17.9-14.3,32.5-32,32.5l0,0c-17.7,0-32-14.6-32-32.5v-95c0-17.9,14.3-32.5,32-32.5l0,0
			c17.7,0,32,14.6,32,32.5V642.5z"/>
	</g>
	<g>
		<rect x="-431" y="435" class="st0" width="80" height="32"/>
		<rect x="-255" y="435" class="st0" width="272" height="32"/>
		<path class="st0" d="M-271,498.5c0,17.9-14.3,32.5-32,32.5l0,0c-17.7,0-32-14.6-32-32.5v-95c0-17.9,14.3-32.5,32-32.5l0,0
			c17.7,0,32,14.6,32,32.5V498.5z"/>
	</g>
	<g>
		<rect x="-431" y="291" class="st0" width="272" height="32"/>
		<rect x="-63" y="291" class="st0" width="80" height="32"/>
		<path class="st0" d="M-79,354.5c0,17.9-14.3,32.5-32,32.5l0,0c-17.7,0-32-14.6-32-32.5v-95c0-17.9,14.3-32.5,32-32.5l0,0
			c17.7,0,32,14.6,32,32.5V354.5z"/>
	</g>
</g>
</svg>
